<?xml version="1.0" encoding="utf-8"?>
<!-- Generator: Adobe Illustrator 17.0.0, SVG Export Plug-In . SVG Version: 6.00 Build 0)  -->
<!DOCTYPE svg PUBLIC "-//W3C//DTD SVG 1.1//EN" "http://www.w3.org/Graphics/SVG/1.1/DTD/svg11.dtd">
<svg version="1.1" id="Layer_1" xmlns="http://www.w3.org/2000/svg" xmlns:xlink="http://www.w3.org/1999/xlink" x="0px" y="0px"
	 width="124px" height="23px" viewBox="0 0 124 23" enable-background="new 0 0 124 23" xml:space="preserve">
<g>
	<path fill="#F8EC38" d="M13.151,17.25c0.052,0.261,0.049,0.492-0.01,0.693c-0.059,0.202-0.153,0.372-0.283,0.509
		c-0.13,0.137-0.287,0.244-0.469,0.322c-0.183,0.078-0.372,0.117-0.567,0.117c-0.287,0-0.554-0.081-0.801-0.244
		s-0.417-0.434-0.508-0.812c-0.078-0.352-0.16-0.703-0.244-1.056c-0.085-0.352-0.173-0.696-0.264-1.035H5.43
		c-0.091,0.339-0.183,0.684-0.273,1.035c-0.091,0.353-0.176,0.704-0.254,1.056c-0.078,0.365-0.238,0.633-0.479,0.802
		c-0.242,0.169-0.499,0.254-0.772,0.254c-0.183,0-0.365-0.039-0.547-0.117c-0.183-0.078-0.339-0.186-0.469-0.322
		c-0.13-0.137-0.225-0.307-0.284-0.509c-0.059-0.201-0.055-0.433,0.01-0.693c0.456-2.059,0.99-4.037,1.603-5.933
		c0.612-1.896,1.296-3.775,2.052-5.639c0.234-0.586,0.505-0.968,0.811-1.144s0.609-0.264,0.909-0.264
		c0.299,0,0.609,0.088,0.928,0.264s0.596,0.557,0.831,1.144c0.755,1.863,1.439,3.743,2.052,5.639
		C12.161,13.213,12.695,15.191,13.151,17.25z M9.359,13.36c-0.248-0.834-0.508-1.652-0.782-2.453
		c-0.273-0.801-0.561-1.606-0.86-2.414c-0.3,0.808-0.586,1.613-0.86,2.414c-0.273,0.801-0.534,1.619-0.782,2.453H9.359z"/>
	<path fill="#F8EC38" d="M25.797,17.25c0.052,0.261,0.049,0.492-0.01,0.693c-0.059,0.202-0.153,0.372-0.283,0.509
		c-0.13,0.137-0.287,0.244-0.469,0.322c-0.183,0.078-0.372,0.117-0.567,0.117c-0.287,0-0.554-0.081-0.801-0.244
		s-0.417-0.434-0.508-0.812c-0.078-0.352-0.16-0.703-0.244-1.056c-0.085-0.352-0.173-0.696-0.264-1.035h-4.574
		c-0.091,0.339-0.183,0.684-0.273,1.035c-0.091,0.353-0.176,0.704-0.254,1.056c-0.078,0.365-0.238,0.633-0.479,0.802
		c-0.242,0.169-0.499,0.254-0.772,0.254c-0.183,0-0.365-0.039-0.547-0.117c-0.183-0.078-0.339-0.186-0.469-0.322
		c-0.13-0.137-0.225-0.307-0.284-0.509c-0.059-0.201-0.055-0.433,0.01-0.693c0.456-2.059,0.99-4.037,1.603-5.933
		c0.612-1.896,1.296-3.775,2.052-5.639c0.234-0.586,0.505-0.968,0.811-1.144s0.609-0.264,0.909-0.264
		c0.299,0,0.609,0.088,0.928,0.264s0.596,0.557,0.831,1.144c0.755,1.863,1.439,3.743,2.052,5.639
		C24.807,13.213,25.341,15.191,25.797,17.25z M22.005,13.36c-0.248-0.834-0.508-1.652-0.782-2.453
		c-0.273-0.801-0.561-1.606-0.86-2.414c-0.3,0.808-0.586,1.613-0.86,2.414c-0.273,0.801-0.534,1.619-0.782,2.453H22.005z"/>
	<path fill="#F8EC38" d="M38.033,9.501c0,0.588-0.098,1.124-0.293,1.606c-0.196,0.483-0.479,0.897-0.851,1.244
		c-0.371,0.346-0.828,0.613-1.368,0.803s-1.156,0.284-1.847,0.284h-2.482v4.104c0,0.378-0.131,0.697-0.391,0.958
		c-0.261,0.261-0.58,0.391-0.958,0.391s-0.694-0.131-0.948-0.391c-0.254-0.262-0.381-0.581-0.381-0.96V5.798
		c0-0.378,0.127-0.698,0.381-0.959c0.254-0.261,0.57-0.392,0.948-0.392h3.714c0.847,0,1.557,0.118,2.131,0.353
		c0.573,0.235,1.032,0.545,1.378,0.93c0.345,0.386,0.593,0.82,0.743,1.303C37.958,7.516,38.033,8,38.033,8.482V9.501z M35.335,8.552
		c0-0.195-0.029-0.384-0.088-0.567c-0.059-0.182-0.16-0.345-0.303-0.489c-0.144-0.143-0.349-0.26-0.616-0.352
		c-0.267-0.091-0.603-0.137-1.006-0.137h-2.13v3.987h2.365c0.339,0,0.622-0.042,0.851-0.127c0.228-0.085,0.41-0.202,0.547-0.352
		c0.137-0.149,0.235-0.316,0.293-0.499c0.059-0.182,0.088-0.371,0.088-0.566V8.552z"/>
	<path fill="#F8EC38" d="M42.157,7.536c-0.43,0.469-0.795,0.704-1.095,0.704c-0.261,0-0.397-0.137-0.411-0.411
		c0-0.143,0.124-0.319,0.372-0.528c0.234-0.208,0.384-0.482,0.45-0.821c-0.586-0.156-0.88-0.521-0.88-1.095
		c0-0.326,0.111-0.596,0.333-0.811c0.221-0.215,0.489-0.323,0.801-0.323c0.352,0,0.635,0.124,0.85,0.372
		C42.792,4.871,42.9,5.197,42.9,5.601C42.9,6.317,42.652,6.962,42.157,7.536z"/>
	<path fill="#F8EC38" d="M54.305,18.472c-0.163,0.163-0.362,0.244-0.596,0.244H46.75c-0.234,0-0.433-0.081-0.596-0.244
		s-0.244-0.361-0.244-0.597c0-0.221,0.081-0.413,0.244-0.576s0.362-0.244,0.596-0.244h3.284V6.695l-3.342,2.287
		c-0.13,0.091-0.28,0.137-0.45,0.137c-0.234,0-0.433-0.081-0.596-0.244s-0.244-0.355-0.244-0.577c0-0.3,0.124-0.534,0.372-0.704
		l4.593-3.127c0.169-0.117,0.352-0.176,0.547-0.176c0.247,0,0.456,0.085,0.625,0.254c0.169,0.169,0.254,0.378,0.254,0.625v11.884
		h1.916c0.234,0,0.433,0.081,0.596,0.244c0.163,0.163,0.244,0.355,0.244,0.576C54.549,18.11,54.467,18.309,54.305,18.472z"/>
	<path fill="#F8EC38" d="M64.163,17.484c-0.821,0.938-1.981,1.407-3.479,1.407c-1.251,0-2.287-0.293-3.108-0.88
		c-0.287-0.208-0.43-0.455-0.43-0.742c0-0.222,0.078-0.417,0.235-0.587c0.156-0.169,0.352-0.254,0.586-0.254
		c0.195,0,0.364,0.053,0.508,0.156c0.639,0.482,1.375,0.724,2.209,0.724c0.938,0,1.654-0.293,2.15-0.88
		c0.43-0.521,0.645-1.205,0.645-2.052c0-1.916-0.827-2.874-2.482-2.874c-0.56,0-1.082,0.169-1.563,0.508
		c-0.195,0.169-0.388,0.332-0.577,0.488s-0.368,0.234-0.538,0.234c-0.234,0-0.433-0.081-0.596-0.244s-0.238-0.375-0.225-0.635
		l0.215-6.567c0.013-0.234,0.104-0.43,0.274-0.586c0.169-0.156,0.364-0.234,0.586-0.234h5.101c0.222,0,0.414,0.082,0.577,0.244
		c0.162,0.163,0.244,0.362,0.244,0.596c0,0.222-0.082,0.414-0.244,0.577c-0.163,0.163-0.355,0.244-0.577,0.244h-4.339l-0.157,4.398
		c0.561-0.378,1.206-0.567,1.936-0.567c1.302,0,2.316,0.385,3.04,1.153c0.723,0.769,1.084,1.856,1.084,3.265
		C65.237,15.641,64.879,16.677,64.163,17.484z"/>
</g>
</svg>
