<?xml version="1.0" encoding="utf-8"?>
<!-- Generator: Adobe Illustrator 17.0.0, SVG Export Plug-In . SVG Version: 6.00 Build 0)  -->
<!DOCTYPE svg PUBLIC "-//W3C//DTD SVG 1.1//EN" "http://www.w3.org/Graphics/SVG/1.1/DTD/svg11.dtd">
<svg version="1.1" id="Layer_1" xmlns="http://www.w3.org/2000/svg" xmlns:xlink="http://www.w3.org/1999/xlink" x="0px" y="0px"
	 width="151.782px" height="86.723px" viewBox="0 0 151.782 86.723" enable-background="new 0 0 151.782 86.723"
	 xml:space="preserve">
<g>
	<g>
		<path fill="#FFFFFF" d="M86.637,22.09c-0.56,0-1.178-0.265-1.532-0.619c-0.294-0.236-0.471-0.559-0.589-0.884
			c-1.119,1.207-2.827,1.502-4.123,1.502c-3.652,0-5.154-1.885-5.154-4.329v-0.236c0-2.444,1.678-4.27,5.419-4.27h3.357v-0.707
			c0-2.356-0.559-3.534-3.033-3.534c-1.385,0-2.268,0.324-3.004,0.736c-1.325,0.707-2.415-1.06-1.178-1.855
			c1.178-0.736,2.71-1.031,4.33-1.031c4.212,0,5.449,2.032,5.449,5.92v5.478c0,1.178,0.265,1.531,0.824,1.855
			c0.324,0.177,0.501,0.471,0.501,0.854C87.903,21.737,87.373,22.09,86.637,22.09z M84.015,15.257h-3.092
			c-2.474,0-3.122,1.09-3.122,2.297v0.236c0,1.237,0.677,2.297,3.033,2.297c1.974,0,3.181-1.001,3.181-3.092V15.257z"/>
		<path fill="#FFFFFF" d="M95.972,21.913h-0.884c-4.064,0-5.124-2.533-5.124-6.362V9.249H89.11c-0.619,0-1.119-0.501-1.119-1.09
			c0-0.619,0.5-1.119,1.119-1.119h0.854V4.007c0-0.707,0.589-1.296,1.296-1.296c0.707,0,1.267,0.589,1.267,1.296V7.04h2.739
			c0.618,0,1.119,0.501,1.119,1.119c0,0.589-0.501,1.09-1.119,1.09h-2.739v6.273c0.029,2.916,0.501,4.035,2.857,4.035h0.589
			c0.648,0,1.178,0.53,1.178,1.178S96.62,21.913,95.972,21.913z"/>
		<path fill="#FFFFFF" d="M108.459,22.09c-0.559,0-1.178-0.265-1.531-0.619c-0.295-0.236-0.471-0.559-0.589-0.884
			c-1.119,1.207-2.827,1.502-4.123,1.502c-3.652,0-5.154-1.885-5.154-4.329v-0.236c0-2.444,1.679-4.27,5.419-4.27h3.357v-0.707
			c0-2.356-0.56-3.534-3.033-3.534c-1.384,0-2.268,0.324-3.004,0.736c-1.325,0.707-2.415-1.06-1.178-1.855
			c1.178-0.736,2.71-1.031,4.329-1.031c4.212,0,5.449,2.032,5.449,5.92v5.478c0,1.178,0.265,1.531,0.825,1.855
			c0.324,0.177,0.5,0.471,0.5,0.854C109.725,21.737,109.196,22.09,108.459,22.09z M105.838,15.257h-3.092
			c-2.474,0-3.122,1.09-3.122,2.297v0.236c0,1.237,0.677,2.297,3.034,2.297c1.973,0,3.18-1.001,3.18-3.092V15.257z"/>
		<path fill="#FFFFFF" d="M114.055,22.09c-0.472,0-1.119-0.236-1.591-0.619c-0.736-0.619-1.148-1.62-1.148-2.739V1.857
			c0-0.707,0.589-1.267,1.296-1.267c0.707,0,1.296,0.56,1.296,1.267v16.405c0,1.207,0.324,1.531,0.913,1.855
			c0.324,0.177,0.501,0.471,0.501,0.854C115.321,21.737,114.762,22.09,114.055,22.09z"/>
		<path fill="#FFFFFF" d="M127.426,22.09c-0.56,0-1.178-0.265-1.531-0.619c-0.295-0.236-0.471-0.559-0.589-0.884
			c-1.119,1.207-2.827,1.502-4.123,1.502c-3.652,0-5.154-1.885-5.154-4.329v-0.236c0-2.444,1.678-4.27,5.419-4.27h3.358v-0.707
			c0-2.356-0.56-3.534-3.034-3.534c-1.384,0-2.268,0.324-3.004,0.736c-1.325,0.707-2.415-1.06-1.178-1.855
			c1.178-0.736,2.71-1.031,4.33-1.031c4.211,0,5.448,2.032,5.448,5.92v5.478c0,1.178,0.265,1.531,0.824,1.855
			c0.325,0.177,0.501,0.471,0.501,0.854C128.692,21.737,128.162,22.09,127.426,22.09z M124.805,15.257h-3.093
			c-2.474,0-3.122,1.09-3.122,2.297v0.236c0,1.237,0.678,2.297,3.033,2.297c1.974,0,3.181-1.001,3.181-3.092V15.257z"/>
		<path fill="#FFFFFF" d="M131.666,3.683c-0.824,0-1.502-0.677-1.502-1.502c0-0.825,0.678-1.502,1.502-1.502
			c0.854,0,1.531,0.677,1.531,1.502C133.198,3.006,132.52,3.683,131.666,3.683z M131.666,22.09c-0.707,0-1.267-0.56-1.267-1.296
			V8.16c0-0.707,0.56-1.296,1.267-1.296c0.736,0,1.296,0.589,1.296,1.296v12.635C132.962,21.53,132.402,22.09,131.666,22.09z"/>
		<path fill="#FFFFFF" d="M146.067,22.09c-0.559,0-1.178-0.265-1.531-0.619c-0.295-0.236-0.471-0.559-0.589-0.884
			c-1.119,1.207-2.827,1.502-4.123,1.502c-3.652,0-5.154-1.885-5.154-4.329v-0.236c0-2.444,1.679-4.27,5.419-4.27h3.357v-0.707
			c0-2.356-0.559-3.534-3.034-3.534c-1.384,0-2.267,0.324-3.004,0.736c-1.325,0.707-2.415-1.06-1.178-1.855
			c1.178-0.736,2.71-1.031,4.329-1.031c4.212,0,5.448,2.032,5.448,5.92v5.478c0,1.178,0.265,1.531,0.825,1.855
			c0.324,0.177,0.501,0.471,0.501,0.854C147.334,21.737,146.804,22.09,146.067,22.09z M143.446,15.257h-3.093
			c-2.474,0-3.122,1.09-3.122,2.297v0.236c0,1.237,0.677,2.297,3.033,2.297c1.973,0,3.181-1.001,3.181-3.092V15.257z"/>
	</g>
	<g>
		<path fill="#FFFFFF" d="M12.086,53.384c-0.913,0-1.59-0.383-1.944-0.619c-0.235-0.147-0.412-0.324-0.589-0.501
			c-1.149,0.854-2.739,1.119-4.006,1.119c-3.475,0-5.389-1.797-5.389-4.742v-0.206c0-2.916,2.238-4.535,6.038-4.535h2.268v-0.501
			c0-1.384-0.412-2.238-1.855-2.238c-1.149,0-1.855,0.265-2.474,0.589c-2.267,1.149-4.064-1.796-1.973-3.151
			c1.296-0.854,3.328-1.09,4.859-1.09c4.3,0,6.096,1.797,6.096,6.479v4.624c0,0.913,0.354,1.148,0.766,1.561
			c0.265,0.294,0.559,0.707,0.559,1.325C14.442,52.854,13.529,53.384,12.086,53.384z M8.464,47.169H6.785
			c-1.414,0-2.003,0.501-2.003,1.384v0.177c0,1.001,0.707,1.443,1.826,1.443c1.031,0,1.855-0.618,1.855-1.944V47.169z"/>
		<path fill="#FFFFFF" d="M24.102,42.045c-0.295-0.059-0.442-0.088-1.178-0.088c-1.148,0-1.826,0.501-2.15,1.207v7.893
			c0,1.296-1.031,2.327-2.327,2.327c-1.296,0-2.356-1.031-2.356-2.327v-8.6c0-0.883-0.442-1.149-0.825-1.561
			c-0.295-0.294-0.589-0.707-0.589-1.296c0-1.355,0.913-1.914,2.356-1.914c0.177,0,0.53,0.029,0.707,0.088
			c1.09,0.265,1.797,0.854,2.268,1.531c1.384-1.59,3.181-1.767,4.064-1.767c0.765,0,1.354,0.206,1.767,0.501
			c0.825,0.589,1.061,1.502,0.795,2.444C26.37,41.515,25.457,42.28,24.102,42.045z"/>
		<path fill="#FFFFFF" d="M34.998,53.207h-1.207c-4.359,0-6.096-2.857-6.096-7.068v-4.683H27.4c-1.031,0-1.885-0.854-1.885-1.885
			c0-1.06,0.854-1.885,1.885-1.885h0.295v-1.502c0-1.296,1.06-2.356,2.356-2.356c1.266,0,2.327,1.06,2.327,2.356v1.502h2.003
			c1.06,0,1.914,0.825,1.914,1.885c0,1.031-0.854,1.885-1.914,1.885h-2.003v4.595c0,2.121,0.442,3.063,2.091,3.063h0.53
			c1.119,0,2.032,0.913,2.032,2.032C37.031,52.294,36.118,53.207,34.998,53.207z"/>
		<path fill="#FFFFFF" d="M49.989,45.255c0,0.913-0.707,1.62-1.561,1.62H41.89v0.471c0,1.473,0.678,2.297,2.003,2.297
			c1.384,0,2.091-0.206,3.122-0.56c0.913-0.354,1.944,0.177,2.209,1.207c0.235,1.031-0.177,1.885-1.031,2.238
			c-1.708,0.677-3.328,0.854-4.565,0.854c-4.771,0-6.391-3.063-6.391-6.568v-2.739c0-3.475,2.032-6.568,6.421-6.568
			c4.536,0,6.332,3.004,6.332,6.509V45.255z M45.512,43.134c0-1.355-0.589-2.061-1.767-2.061c-1.178,0-1.855,0.707-1.855,2.061
			v0.324h3.623V43.134z"/>
		<path fill="#FFFFFF" d="M56.233,53.384c-2.18,0-3.299-0.295-4.3-0.619c-0.972-0.324-1.414-1.473-1.119-2.444
			c0.354-1.149,1.531-1.59,2.503-1.237c0.854,0.294,1.473,0.53,2.975,0.53c1.178,0,1.973-0.383,1.973-1.031
			c0-1.325-2.091-1.178-4.064-1.738c-1.737-0.471-3.357-1.473-3.357-4.388c0-3.299,2.71-4.948,5.743-4.948
			c2.003,0,3.151,0.265,4.27,0.648c1.031,0.354,1.561,1.384,1.267,2.415c-0.324,1.002-1.384,1.59-2.415,1.267
			c-1.178-0.354-1.914-0.56-2.857-0.56c-1.178,0-1.649,0.442-1.649,0.854c0,1.178,1.649,1.178,3.564,1.62
			c1.914,0.442,3.917,1.325,3.917,4.594C62.682,52.088,59.354,53.384,56.233,53.384z"/>
	</g>
	<g>
		<path fill="#FFFFFF" d="M79.058,52.953c-1.09,0-2.15-0.324-2.827-0.736v3.622c0,1.296-1.06,2.327-2.356,2.327
			c-1.296,0-2.327-1.031-2.327-2.327V41.85c0-0.884-0.353-1.149-0.736-1.561c-0.295-0.294-0.589-0.707-0.589-1.325
			c0-1.325,0.972-1.885,2.356-1.885c0.677,0,1.384,0.206,2.003,0.648c0.177,0.147,0.354,0.294,0.53,0.471
			c0.913-0.677,2.356-1.119,3.652-1.119c3.887,0,5.772,2.238,5.772,6.479v2.238C84.537,50.332,83.182,52.953,79.058,52.953z
			 M79.883,43.175c0-1.473-0.559-2.209-1.973-2.209c-0.56,0-1.208,0.265-1.679,0.619v6.774c0.442,0.412,1.09,0.707,1.708,0.707
			c1.443,0,1.944-0.854,1.944-2.327V43.175z"/>
		<path fill="#FFFFFF" d="M98.761,44.825c0,0.913-0.707,1.62-1.561,1.62h-6.538v0.471c0,1.473,0.678,2.297,2.003,2.297
			c1.384,0,2.091-0.206,3.122-0.559c0.913-0.354,1.944,0.177,2.209,1.207c0.235,1.031-0.177,1.885-1.031,2.238
			c-1.708,0.677-3.328,0.854-4.565,0.854c-4.771,0-6.391-3.063-6.391-6.568v-2.739c0-3.475,2.032-6.568,6.421-6.568
			c4.536,0,6.332,3.004,6.332,6.509V44.825z M94.284,42.704c0-1.355-0.589-2.061-1.767-2.061c-1.178,0-1.855,0.707-1.855,2.061
			v0.324h3.623V42.704z"/>
		<path fill="#FFFFFF" d="M108.804,41.615c-0.295-0.059-0.442-0.088-1.178-0.088c-1.149,0-1.826,0.501-2.15,1.207v7.893
			c0,1.296-1.031,2.327-2.327,2.327c-1.296,0-2.356-1.031-2.356-2.327v-8.6c0-0.883-0.442-1.149-0.825-1.561
			c-0.294-0.294-0.589-0.707-0.589-1.296c0-1.355,0.913-1.914,2.356-1.914c0.177,0,0.53,0.029,0.707,0.088
			c1.09,0.265,1.796,0.854,2.267,1.531c1.384-1.59,3.181-1.767,4.064-1.767c0.766,0,1.355,0.206,1.767,0.501
			c0.825,0.589,1.06,1.502,0.795,2.444C111.071,41.084,110.158,41.85,108.804,41.615z"/>
		<path fill="#FFFFFF" d="M119.877,35.165h-0.942c-1.06,0-1.797,0.501-1.797,1.826v0.265h1.561c1.06,0,1.885,0.825,1.885,1.885
			c0,1.031-0.825,1.885-1.885,1.885h-1.561v9.601c0,1.296-1.06,2.327-2.356,2.327c-1.296,0-2.327-1.031-2.327-2.327v-9.601h-0.235
			c-1.031,0-1.885-0.854-1.885-1.885c0-1.06,0.854-1.885,1.885-1.885h0.235v-0.265c0-3.682,2.209-5.89,5.832-5.89h1.59
			c1.119,0,2.032,0.913,2.032,2.032C121.909,34.252,120.996,35.165,119.877,35.165z"/>
		<path fill="#FFFFFF" d="M128.299,52.953c-4.506,0-6.538-2.857-6.538-6.332V43.44c0-3.475,2.032-6.362,6.538-6.362
			c4.476,0,6.509,2.886,6.509,6.362v3.181C134.808,50.097,132.776,52.953,128.299,52.953z M130.155,43.47
			c0-1.473-0.648-2.209-1.855-2.209c-1.237,0-1.855,0.736-1.855,2.209v3.122c0,1.473,0.618,2.209,1.855,2.209
			c1.207,0,1.855-0.736,1.855-2.209V43.47z"/>
		<path fill="#FFFFFF" d="M145.087,41.615c-0.295-0.059-0.442-0.088-1.178-0.088c-1.148,0-1.826,0.501-2.15,1.207v7.893
			c0,1.296-1.031,2.327-2.327,2.327c-1.296,0-2.356-1.031-2.356-2.327v-8.6c0-0.883-0.442-1.149-0.825-1.561
			c-0.295-0.294-0.589-0.707-0.589-1.296c0-1.355,0.913-1.914,2.356-1.914c0.177,0,0.53,0.029,0.707,0.088
			c1.09,0.265,1.797,0.854,2.268,1.531c1.384-1.59,3.181-1.767,4.064-1.767c0.765,0,1.354,0.206,1.767,0.501
			c0.825,0.589,1.061,1.502,0.795,2.444C147.354,41.084,146.441,41.85,145.087,41.615z"/>
	</g>
	<g>
		<path fill="#FFFFFF" d="M72.112,79.445c-1.267,0-2.327-1.031-2.327-2.327v-7.304c0-0.884-0.235-1.855-1.708-1.855
			c-0.765,0-1.443,0.324-1.914,0.854c0,0.118,0.029,0.236,0.029,0.353v7.952c0,1.296-1.06,2.327-2.356,2.327
			c-1.296,0-2.327-1.031-2.327-2.327v-7.304c0-0.884-0.235-1.855-1.708-1.855c-0.766,0-1.443,0.324-1.914,0.854v8.305
			c0,1.296-1.031,2.327-2.327,2.327s-2.356-1.031-2.356-2.327v-8.6c0-0.883-0.442-1.149-0.825-1.561
			c-0.295-0.294-0.589-0.707-0.589-1.296c0-1.355,0.972-1.914,2.356-1.914c0.677,0,1.384,0.206,2.003,0.648
			c0.236,0.177,0.471,0.383,0.677,0.648c1.061-0.913,2.474-1.473,4.33-1.473s3.092,0.53,3.887,1.502
			c1.06-0.942,2.503-1.502,4.388-1.502c3.711,0,5.036,2.15,5.036,5.596v7.952C74.468,78.414,73.408,79.445,72.112,79.445z"/>
		<path fill="#FFFFFF" d="M87.809,79.445c-0.913,0-1.59-0.383-1.944-0.619c-0.235-0.147-0.412-0.324-0.589-0.501
			c-1.148,0.854-2.739,1.119-4.005,1.119c-3.476,0-5.39-1.797-5.39-4.742v-0.206c0-2.916,2.238-4.535,6.038-4.535h2.268V69.46
			c0-1.384-0.412-2.238-1.855-2.238c-1.149,0-1.855,0.265-2.474,0.589c-2.268,1.149-4.064-1.796-1.974-3.151
			c1.296-0.854,3.328-1.09,4.86-1.09c4.3,0,6.096,1.797,6.096,6.479v4.624c0,0.913,0.353,1.148,0.765,1.561
			c0.265,0.294,0.56,0.707,0.56,1.325C90.165,78.915,89.252,79.445,87.809,79.445z M84.186,73.23h-1.679
			c-1.414,0-2.003,0.501-2.003,1.384v0.177c0,1.001,0.707,1.443,1.826,1.443c1.031,0,1.855-0.618,1.855-1.944V73.23z"/>
		<path fill="#FFFFFF" d="M99.177,79.268h-1.207c-4.359,0-6.096-2.857-6.096-7.068v-4.683h-0.295c-1.031,0-1.885-0.854-1.885-1.885
			c0-1.06,0.854-1.885,1.885-1.885h0.295v-1.502c0-1.296,1.06-2.356,2.356-2.356c1.267,0,2.327,1.06,2.327,2.356v1.502h2.003
			c1.06,0,1.914,0.825,1.914,1.885c0,1.031-0.854,1.885-1.914,1.885h-2.003v4.595c0,2.121,0.442,3.063,2.091,3.063h0.53
			c1.119,0,2.032,0.913,2.032,2.032C101.209,78.355,100.296,79.268,99.177,79.268z"/>
		<path fill="#FFFFFF" d="M104.154,62.157c-1.414,0-2.563-1.148-2.563-2.562c0-1.443,1.149-2.592,2.563-2.592
			c1.443,0,2.592,1.149,2.592,2.592C106.746,61.008,105.597,62.157,104.154,62.157z M104.154,79.445
			c-1.267,0-2.327-1.031-2.327-2.327V65.926c0-1.296,1.06-2.356,2.327-2.356c1.296,0,2.356,1.06,2.356,2.356v11.192
			C106.51,78.414,105.45,79.445,104.154,79.445z"/>
		<path fill="#FFFFFF" d="M117.406,77.118c-0.854,1.973-1.885,2.327-3.063,2.327c-1.325,0-2.297-0.354-3.093-2.327
			c-1.237-3.151-2.71-7.216-3.77-10.809c-0.501-1.649,0.795-2.739,2.091-2.739c0.824,0,1.649,0.442,1.973,1.502
			c0.795,2.621,1.885,6.008,2.827,8.629c0.942-2.592,2.032-5.92,2.916-8.6c0.354-1.06,1.178-1.532,2.032-1.532
			c1.325,0,2.71,1.178,2.15,2.857C120.263,70.079,118.791,73.908,117.406,77.118z"/>
		<path fill="#FFFFFF" d="M133.486,79.445c-0.913,0-1.59-0.383-1.944-0.619c-0.235-0.147-0.412-0.324-0.589-0.501
			c-1.148,0.854-2.739,1.119-4.005,1.119c-3.476,0-5.39-1.797-5.39-4.742v-0.206c0-2.916,2.238-4.535,6.038-4.535h2.268V69.46
			c0-1.384-0.412-2.238-1.855-2.238c-1.149,0-1.855,0.265-2.474,0.589c-2.268,1.149-4.064-1.796-1.974-3.151
			c1.296-0.854,3.328-1.09,4.86-1.09c4.3,0,6.096,1.797,6.096,6.479v4.624c0,0.913,0.353,1.148,0.765,1.561
			c0.265,0.294,0.559,0.707,0.559,1.325C135.842,78.915,134.929,79.445,133.486,79.445z M129.864,73.23h-1.679
			c-1.414,0-2.003,0.501-2.003,1.384v0.177c0,1.001,0.707,1.443,1.826,1.443c1.031,0,1.855-0.618,1.855-1.944V73.23z"/>
		<path fill="#FFFFFF" d="M141.703,79.445c-2.18,0-3.299-0.295-4.3-0.619c-0.972-0.324-1.414-1.473-1.119-2.444
			c0.354-1.149,1.532-1.59,2.504-1.237c0.854,0.294,1.473,0.53,2.974,0.53c1.178,0,1.973-0.383,1.973-1.031
			c0-1.325-2.091-1.178-4.064-1.738c-1.737-0.471-3.357-1.473-3.357-4.388c0-3.299,2.71-4.948,5.743-4.948
			c2.003,0,3.151,0.265,4.271,0.648c1.031,0.354,1.561,1.384,1.266,2.415c-0.324,1.002-1.384,1.59-2.415,1.267
			c-1.178-0.354-1.914-0.56-2.857-0.56c-1.178,0-1.649,0.442-1.649,0.854c0,1.178,1.649,1.178,3.563,1.62
			c1.914,0.442,3.917,1.325,3.917,4.594C148.153,78.149,144.825,79.445,141.703,79.445z"/>
	</g>
</g>
</svg>
