<?xml version="1.0" encoding="utf-8"?>
<!-- Generator: Adobe Illustrator 17.0.0, SVG Export Plug-In . SVG Version: 6.00 Build 0)  -->
<!DOCTYPE svg PUBLIC "-//W3C//DTD SVG 1.1//EN" "http://www.w3.org/Graphics/SVG/1.1/DTD/svg11.dtd">
<svg version="1.1" id="Layer_1" xmlns="http://www.w3.org/2000/svg" xmlns:xlink="http://www.w3.org/1999/xlink" x="0px" y="0px"
	 width="25.348px" height="26.78px" viewBox="0 0 25.348 26.78" enable-background="new 0 0 25.348 26.78" xml:space="preserve">
<g>
	<path fill="#FFFFFF" stroke="#FFFFFF" stroke-miterlimit="10" d="M19.334,24.846c-1.09,0-2.145-0.328-3.135-0.976
		c-0.281-0.174-0.508-0.368-0.716-0.564c-2.024,1.334-4.594,1.54-5.983,1.54c-2.677,0-4.788-0.663-6.274-1.97
		C1.77,21.595,1,19.716,1,17.445V17.14c0-2.234,0.885-4.061,2.558-5.285c1.645-1.202,3.972-1.812,6.916-1.812h3.018V9.695
		c0-2.099-0.672-2.917-2.397-2.917c-1.7,0-2.706,0.398-3.54,0.827c-0.573,0.285-1.15,0.429-1.72,0.429
		c-1.424,0-2.696-0.945-3.093-2.299C2.353,4.413,2.91,3.085,4.194,2.268c0.963-0.624,3.224-1.673,7.521-1.673
		c3.444,0,5.762,0.735,7.293,2.313c1.549,1.596,2.27,4.029,2.27,7.658v6.836c0,1.041,0.334,1.359,0.839,1.84
		c0.064,0.061,0.13,0.124,0.196,0.189l0.014,0.015c0.405,0.443,0.944,1.155,0.944,2.223C23.271,23.118,22.588,24.846,19.334,24.846z
		 M15.562,22.286l0.239,0.235c0.257,0.253,0.5,0.491,0.816,0.686l0.01,0.006c0.861,0.564,1.772,0.85,2.708,0.85
		c2.149,0,3.151-0.761,3.151-2.395c0-0.778-0.369-1.29-0.732-1.688c-0.061-0.06-0.121-0.117-0.18-0.173
		c-0.556-0.53-1.081-1.03-1.081-2.406v-6.836c0-6.611-2.461-9.187-8.776-9.187c-1.415,0-4.938,0.151-7.095,1.548
		c-0.995,0.633-1.414,1.6-1.124,2.588c0.3,1.022,1.262,1.735,2.338,1.735c0.447,0,0.905-0.116,1.363-0.343
		c0.918-0.473,2.029-0.912,3.897-0.912c2.854,0,3.184,2.112,3.184,3.701v1.132h-3.804c-2.734,0-4.965,0.574-6.451,1.66
		c-1.484,1.085-2.237,2.651-2.237,4.653v0.305c0,4.206,2.811,6.618,7.713,6.618c1.092,0,3.842-0.154,5.792-1.579L15.562,22.286z
		 M11.095,20.1c-2.732,0-3.14-1.582-3.14-2.525v-0.261c0-1.618,1.146-2.438,3.406-2.438h2.918v1.959
		C14.279,18.819,13.029,20.1,11.095,20.1z M11.36,15.659c-2.321,0-2.619,0.884-2.619,1.655v0.261c0,1.172,0.77,1.742,2.353,1.742
		c0.721,0,2.397-0.242,2.397-2.482v-1.176H11.36z"/>
</g>
</svg>
