<?xml version="1.0" encoding="utf-8"?>
<!-- Generator: Adobe Illustrator 17.0.0, SVG Export Plug-In . SVG Version: 6.00 Build 0)  -->
<!DOCTYPE svg PUBLIC "-//W3C//DTD SVG 1.1//EN" "http://www.w3.org/Graphics/SVG/1.1/DTD/svg11.dtd">
<svg version="1.1" id="Layer_1" xmlns="http://www.w3.org/2000/svg" xmlns:xlink="http://www.w3.org/1999/xlink" x="0px" y="0px"
	 width="161.019px" height="40px" viewBox="0 0 161.019 40" enable-background="new 0 0 161.019 40" xml:space="preserve">
<g>
	<rect x="9.288" y="12.822" fill="#FFF200" width="15.002" height="1.738"/>
</g>
<path fill="#625D57" d="M28.334,8.476v19.12H5.738V8.476H28.334 M30.072,6.738H4v22.596h26.072V6.738L30.072,6.738z"/>
<path fill="#FFF200" d="M134.977,14.429l-2.607,6.953l6.953-2.694l2.694-6.953L134.977,14.429z"/>
<g>
	<g>
		<path fill="#625D57" d="M107.366,7.607v14.774H89.985h-0.608l-0.435,0.348l-5.041,3.911v-2.52V7.607H107.366 M109.104,5.869
			H82.163V24.12v6.084l7.822-6.084h19.12V5.869L109.104,5.869z"/>
	</g>
</g>
<g>
	<rect x="89.985" y="13.691" fill="#FFF200" width="11.298" height="1.738"/>
</g>
<path fill="#625D57" d="M67.933,9.345v18.251H45.337V9.345H67.933 M69.671,7.607H43.598v21.727h26.072V7.607L69.671,7.607z"/>
<rect x="48.813" y="5" fill="#625D57" width="2.607" height="4.258"/>
<rect x="61.849" y="5" fill="#625D57" width="2.607" height="4.258"/>
<circle fill="none" stroke="#625D57" stroke-width="2" stroke-miterlimit="10" cx="137.15" cy="16.602" r="11.733"/>
<rect x="49.682" y="14.56" fill="#FFFF00" width="2.047" height="2.047"/>
<rect x="55.688" y="14.56" fill="#FFF200" width="2.047" height="2.047"/>
<rect x="61.694" y="14.405" fill="#FFF200" width="2.047" height="2.047"/>
<rect x="49.682" y="20.132" fill="#FFF200" width="2.047" height="2.047"/>
<rect x="55.688" y="20.132" fill="#FFF200" width="2.047" height="2.047"/>
<rect x="61.694" y="19.978" fill="#FFF200" width="2.047" height="2.047"/>
<rect x="221.192" y="-38.638" fill="#FFF200" width="70.035" height="91.719"/>
</svg>
