<?xml version="1.0" encoding="utf-8"?>
<!-- Generator: Adobe Illustrator 17.0.0, SVG Export Plug-In . SVG Version: 6.00 Build 0)  -->
<!DOCTYPE svg PUBLIC "-//W3C//DTD SVG 1.1//EN" "http://www.w3.org/Graphics/SVG/1.1/DTD/svg11.dtd">
<svg version="1.1" id="Layer_1" xmlns="http://www.w3.org/2000/svg" xmlns:xlink="http://www.w3.org/1999/xlink" x="0px" y="0px"
	 width="100px" height="100px" viewBox="0 0 100 100" enable-background="new 0 0 100 100" xml:space="preserve">
<g>
	<path stroke="#000000" stroke-miterlimit="10" d="M50,100C22.43,100,0,77.57,0,50C0,22.43,22.43,0,50,0c27.57,0,50,22.43,50,50
		C100,77.57,77.57,100,50,100z"/>
</g>
<path d="M178.297,26.915c-6.836,0-12.183,4.424-14.496,12.75c2.52-1.195,7.096-1.818,7.453,2.343
	c0.361,4.165-5.963,14.936-8.74,14.936c-2.77,0-4.831-12.179-5.553-17.745c-0.715-5.573-2.002-11.71-7.243-11.71
	c-5.248,0-11.976,8.225-16.708,11.973l2.468,3.377c0,0,3.492-2.754,4.729-2.547c3.187,0.83,5.911,13.791,7.302,18.733
	c1.385,4.946,3.078,14.94,9.918,14.94c11.054,0,29.354-27.427,29.354-36.381C186.781,31.703,185.134,26.915,178.297,26.915z"/>
<path fill="#FFFFFF" d="M64.87,66.034c-2.073,1.353-3.662,1.95-6.395,1.95c-6.048,0-6.669-4.363-6.669-4.982V46.56
	c0-0.617,0.788-1.075,1.405-1.075h10.293c0.617,0,0.94-0.528,0.94-1.146v-0.025c0-0.619,0-6.699,0-6.699
	c0-0.619-0.323-1.157-0.94-1.157H53.211c-0.618,0-1.405-0.471-1.405-1.089V24.972c0-0.617-0.221-1.149-0.839-1.149h-4.933
	c-0.617,0-1.215,0.511-1.328,1.118c0,0-0.973,4.796-2.507,7.085c-0.702,1.047-1.516,1.956-2.417,2.662
	c-1.454,1.144-3.81,1.595-3.81,1.595c-0.607,0.112-0.95,0.208-1.253,0.208c-0.638,0-0.967,0.506-0.967,1.125v6.7
	c0,0.618,0.513,1.169,1.13,1.169h3.777c0.617,0,1.123,0.482,1.123,1.098c0,0-0.072,19.513-0.072,20.123
	c0,0-0.131,9.472,14.838,9.472c7.421,0,10.69-1.652,10.69-1.652c0.549-0.279,1.012-0.905,1.012-1.631v-6.513
	C66.249,65.099,64.99,65.956,64.87,66.034z"/>
<g>
	<path d="M152.347,33.578c0-0.335,0.046-1.058,0.139-2.164c0.1-1.109,0.518-2.268,1.269-3.486c0.744-1.213,1.95-2.303,3.628-3.268
		c1.671-0.96,4.086-1.443,7.238-1.443h8.879v9.676H167c-0.644,0-1.243,0.242-1.785,0.718c-0.537,0.476-0.813,0.93-0.813,1.35v6.02
		h9.097c-0.095,1.178-0.2,2.324-0.321,3.431l-0.36,2.924c-0.144,0.988-0.291,1.904-0.435,2.747h-8.047v26.827h-11.989V50.08h-5.848
		V40.98h5.848V33.578z"/>
</g>
</svg>
