<?xml version="1.0" encoding="utf-8"?>
<!-- Generator: Adobe Illustrator 17.0.0, SVG Export Plug-In . SVG Version: 6.00 Build 0)  -->
<!DOCTYPE svg PUBLIC "-//W3C//DTD SVG 1.1//EN" "http://www.w3.org/Graphics/SVG/1.1/DTD/svg11.dtd">
<svg version="1.1" id="Layer_1" xmlns="http://www.w3.org/2000/svg" xmlns:xlink="http://www.w3.org/1999/xlink" x="0px" y="0px"
	 width="100px" height="100px" viewBox="0 0 100 100" enable-background="new 0 0 100 100" xml:space="preserve">
<g>
	<path stroke="#000000" stroke-miterlimit="10" d="M50,99C22.981,99,1,77.019,1,50S22.981,1,50,1s49,21.981,49,49S77.019,99,50,99z"
		/>
</g>
<g>
	<path fill="#FFFFFF" d="M42.5,33.906c0-0.328,0.045-1.037,0.136-2.121c0.098-1.087,0.508-2.223,1.244-3.416
		c0.729-1.189,1.911-2.257,3.555-3.203c1.638-0.941,4.004-1.414,7.093-1.414h8.701v9.482h-6.37c-0.631,0-1.218,0.237-1.749,0.704
		c-0.526,0.466-0.797,0.911-0.797,1.323v5.9h8.915c-0.093,1.154-0.196,2.278-0.315,3.362l-0.353,2.866
		c-0.141,0.968-0.285,1.866-0.426,2.692h-7.886v26.29H42.5V50.078h-5.73V41.16h5.731L42.5,33.906L42.5,33.906z"/>
</g>
</svg>
