<?xml version="1.0" encoding="utf-8"?>
<!-- Generator: Adobe Illustrator 17.0.0, SVG Export Plug-In . SVG Version: 6.00 Build 0)  -->
<!DOCTYPE svg PUBLIC "-//W3C//DTD SVG 1.1//EN" "http://www.w3.org/Graphics/SVG/1.1/DTD/svg11.dtd">
<svg version="1.1" id="Layer_1" xmlns="http://www.w3.org/2000/svg" xmlns:xlink="http://www.w3.org/1999/xlink" x="0px" y="0px"
	 width="100px" height="100px" viewBox="0 0 100 100" enable-background="new 0 0 100 100" xml:space="preserve">
<g>
	<path d="M50,100C22.43,100,0,77.57,0,50C0,22.43,22.43,0,50,0c27.57,0,50,22.43,50,50C100,77.57,77.57,100,50,100z"/>
</g>
<path fill="#FFFFFF" d="M66.039,28.749c-6.477,0-11.542,4.191-13.734,12.08c2.388-1.132,6.723-1.723,7.061,2.22
	c0.342,3.946-5.649,14.151-8.28,14.151c-2.624,0-4.577-11.539-5.261-16.812c-0.678-5.28-1.897-11.094-6.862-11.094
	c-4.972,0-11.346,7.792-15.83,11.343l2.338,3.199c0,0,3.308-2.609,4.481-2.413c3.019,0.787,5.6,13.066,6.918,17.748
	c1.312,4.686,2.917,14.154,9.396,14.154c10.473,0,27.81-25.985,27.81-34.468C74.077,33.286,72.516,28.749,66.039,28.749z"/>
</svg>
